<mxfile host="app.diagrams.net" agent="Mozilla/5.0 (Windows NT 10.0; Win64; x64) AppleWebKit/537.36 (KHTML, like Gecko) Chrome/137.0.0.0 Safari/537.36" version="27.1.6">
  <diagram id="Ht1M8jgEwFfnCIfOTk4-" name="Page-1">
    <mxGraphModel dx="1348" dy="714" grid="1" gridSize="10" guides="1" tooltips="1" connect="1" arrows="1" fold="1" page="1" pageScale="1" pageWidth="1169" pageHeight="827" math="0" shadow="0">
      <root>
        <mxCell id="0" />
        <mxCell id="1" style="" parent="0" />
        <mxCell id="Ltkkh5CByaUElA2lVHEI-8" value="Public subnet" style="points=[[0,0],[0.25,0],[0.5,0],[0.75,0],[1,0],[1,0.25],[1,0.5],[1,0.75],[1,1],[0.75,1],[0.5,1],[0.25,1],[0,1],[0,0.75],[0,0.5],[0,0.25]];outlineConnect=0;gradientColor=none;html=1;whiteSpace=wrap;fontSize=12;fontStyle=0;container=1;pointerEvents=0;collapsible=0;recursiveResize=0;shape=mxgraph.aws4.group;grIcon=mxgraph.aws4.group_security_group;grStroke=0;strokeColor=#7AA116;fillColor=#F2F6E8;verticalAlign=top;align=left;spacingLeft=30;fontColor=#248814;dashed=0;" parent="1" vertex="1">
          <mxGeometry x="240" y="160" width="540" height="340" as="geometry" />
        </mxCell>
        <mxCell id="Ltkkh5CByaUElA2lVHEI-9" value="Private subnet" style="points=[[0,0],[0.25,0],[0.5,0],[0.75,0],[1,0],[1,0.25],[1,0.5],[1,0.75],[1,1],[0.75,1],[0.5,1],[0.25,1],[0,1],[0,0.75],[0,0.5],[0,0.25]];outlineConnect=0;gradientColor=none;html=1;whiteSpace=wrap;fontSize=12;fontStyle=0;container=1;pointerEvents=0;collapsible=0;recursiveResize=0;shape=mxgraph.aws4.group;grIcon=mxgraph.aws4.group_security_group;grStroke=0;strokeColor=#00A4A6;fillColor=#E6F6F7;verticalAlign=top;align=left;spacingLeft=30;fontColor=#147EBA;dashed=0;" parent="Ltkkh5CByaUElA2lVHEI-8" vertex="1">
          <mxGeometry y="130" width="540" height="210" as="geometry" />
        </mxCell>
        <mxCell id="Ltkkh5CByaUElA2lVHEI-18" value="Security Group" style="fontStyle=0;verticalAlign=top;align=center;spacingTop=-2;fillColor=none;rounded=0;whiteSpace=wrap;html=1;strokeColor=#FF0000;strokeWidth=2;dashed=1;container=1;collapsible=0;expand=0;recursiveResize=0;" parent="Ltkkh5CByaUElA2lVHEI-9" vertex="1">
          <mxGeometry y="-130" width="540" height="340" as="geometry" />
        </mxCell>
        <mxCell id="Ltkkh5CByaUElA2lVHEI-12" value="EC2 instanec 1" style="sketch=0;points=[[0,0,0],[0.25,0,0],[0.5,0,0],[0.75,0,0],[1,0,0],[0,1,0],[0.25,1,0],[0.5,1,0],[0.75,1,0],[1,1,0],[0,0.25,0],[0,0.5,0],[0,0.75,0],[1,0.25,0],[1,0.5,0],[1,0.75,0]];outlineConnect=0;fontColor=#232F3E;fillColor=#ED7100;strokeColor=#ffffff;dashed=0;verticalLabelPosition=bottom;verticalAlign=top;align=center;html=1;fontSize=12;fontStyle=0;aspect=fixed;shape=mxgraph.aws4.resourceIcon;resIcon=mxgraph.aws4.ec2;" parent="Ltkkh5CByaUElA2lVHEI-18" vertex="1">
          <mxGeometry x="110" y="31" width="78" height="78" as="geometry" />
        </mxCell>
        <mxCell id="Ltkkh5CByaUElA2lVHEI-13" value="EC2 instanec 2&lt;div&gt;&lt;br&gt;&lt;/div&gt;" style="sketch=0;points=[[0,0,0],[0.25,0,0],[0.5,0,0],[0.75,0,0],[1,0,0],[0,1,0],[0.25,1,0],[0.5,1,0],[0.75,1,0],[1,1,0],[0,0.25,0],[0,0.5,0],[0,0.75,0],[1,0.25,0],[1,0.5,0],[1,0.75,0]];outlineConnect=0;fontColor=#232F3E;fillColor=#ED7100;strokeColor=#ffffff;dashed=0;verticalLabelPosition=bottom;verticalAlign=top;align=center;html=1;fontSize=12;fontStyle=0;aspect=fixed;shape=mxgraph.aws4.resourceIcon;resIcon=mxgraph.aws4.ec2;" parent="Ltkkh5CByaUElA2lVHEI-18" vertex="1">
          <mxGeometry x="110" y="196" width="78" height="78" as="geometry" />
        </mxCell>
        <mxCell id="Ltkkh5CByaUElA2lVHEI-36" value="" style="endArrow=classic;html=1;rounded=0;exitX=0.5;exitY=1;exitDx=0;exitDy=0;exitPerimeter=0;entryX=0.5;entryY=0;entryDx=0;entryDy=0;entryPerimeter=0;" parent="Ltkkh5CByaUElA2lVHEI-18" source="Ltkkh5CByaUElA2lVHEI-12" target="Ltkkh5CByaUElA2lVHEI-13" edge="1">
          <mxGeometry width="50" height="50" relative="1" as="geometry">
            <mxPoint x="290" y="120" as="sourcePoint" />
            <mxPoint x="340" y="70" as="targetPoint" />
          </mxGeometry>
        </mxCell>
        <mxCell id="Ltkkh5CByaUElA2lVHEI-37" value="ping" style="edgeLabel;html=1;align=center;verticalAlign=middle;resizable=0;points=[];" parent="Ltkkh5CByaUElA2lVHEI-36" vertex="1" connectable="0">
          <mxGeometry x="0.0126" y="2" relative="1" as="geometry">
            <mxPoint as="offset" />
          </mxGeometry>
        </mxCell>
        <mxCell id="Ltkkh5CByaUElA2lVHEI-19" value="VPC" style="points=[[0,0],[0.25,0],[0.5,0],[0.75,0],[1,0],[1,0.25],[1,0.5],[1,0.75],[1,1],[0.75,1],[0.5,1],[0.25,1],[0,1],[0,0.75],[0,0.5],[0,0.25]];outlineConnect=0;gradientColor=none;html=1;whiteSpace=wrap;fontSize=12;fontStyle=0;container=1;pointerEvents=0;collapsible=0;recursiveResize=0;shape=mxgraph.aws4.group;grIcon=mxgraph.aws4.group_vpc2;strokeColor=#8C4FFF;fillColor=none;verticalAlign=top;align=left;spacingLeft=30;fontColor=#AAB7B8;dashed=0;" parent="1" vertex="1">
          <mxGeometry x="200" y="130" width="610" height="380" as="geometry" />
        </mxCell>
        <mxCell id="Ltkkh5CByaUElA2lVHEI-20" value="Region" style="points=[[0,0],[0.25,0],[0.5,0],[0.75,0],[1,0],[1,0.25],[1,0.5],[1,0.75],[1,1],[0.75,1],[0.5,1],[0.25,1],[0,1],[0,0.75],[0,0.5],[0,0.25]];outlineConnect=0;gradientColor=none;html=1;whiteSpace=wrap;fontSize=12;fontStyle=0;container=1;pointerEvents=0;collapsible=0;recursiveResize=0;shape=mxgraph.aws4.group;grIcon=mxgraph.aws4.group_region;strokeColor=#00A4A6;fillColor=none;verticalAlign=top;align=left;spacingLeft=30;fontColor=#147EBA;dashed=1;" parent="1" vertex="1">
          <mxGeometry x="160" y="100" width="670" height="430" as="geometry" />
        </mxCell>
        <mxCell id="Ltkkh5CByaUElA2lVHEI-21" value="AWS Cloud" style="points=[[0,0],[0.25,0],[0.5,0],[0.75,0],[1,0],[1,0.25],[1,0.5],[1,0.75],[1,1],[0.75,1],[0.5,1],[0.25,1],[0,1],[0,0.75],[0,0.5],[0,0.25]];outlineConnect=0;gradientColor=none;html=1;whiteSpace=wrap;fontSize=12;fontStyle=0;container=1;pointerEvents=0;collapsible=0;recursiveResize=0;shape=mxgraph.aws4.group;grIcon=mxgraph.aws4.group_aws_cloud_alt;strokeColor=#232F3E;fillColor=none;verticalAlign=top;align=left;spacingLeft=30;fontColor=#232F3E;dashed=0;" parent="1" vertex="1">
          <mxGeometry x="130" y="70" width="720" height="470" as="geometry" />
        </mxCell>
        <mxCell id="Ltkkh5CByaUElA2lVHEI-23" value="Internet Gateway" style="sketch=0;outlineConnect=0;fontColor=#232F3E;gradientColor=none;fillColor=#8C4FFF;strokeColor=none;dashed=0;verticalLabelPosition=bottom;verticalAlign=top;align=center;html=1;fontSize=12;fontStyle=0;aspect=fixed;pointerEvents=1;shape=mxgraph.aws4.internet_gateway;" parent="Ltkkh5CByaUElA2lVHEI-21" vertex="1">
          <mxGeometry x="50" y="140" width="38" height="38" as="geometry" />
        </mxCell>
        <mxCell id="2wioDrltc-dDLqrhtzI2-1" value="" style="shape=table;startSize=0;container=1;collapsible=0;childLayout=tableLayout;fontSize=10;" vertex="1" parent="Ltkkh5CByaUElA2lVHEI-21">
          <mxGeometry x="520" y="110" width="120" height="40" as="geometry" />
        </mxCell>
        <mxCell id="2wioDrltc-dDLqrhtzI2-2" value="" style="shape=tableRow;horizontal=0;startSize=0;swimlaneHead=0;swimlaneBody=0;strokeColor=inherit;top=0;left=0;bottom=0;right=0;collapsible=0;dropTarget=0;fillColor=none;points=[[0,0.5],[1,0.5]];portConstraint=eastwest;" vertex="1" parent="2wioDrltc-dDLqrhtzI2-1">
          <mxGeometry width="120" height="20" as="geometry" />
        </mxCell>
        <mxCell id="2wioDrltc-dDLqrhtzI2-3" value="Destination" style="shape=partialRectangle;html=1;whiteSpace=wrap;connectable=0;strokeColor=inherit;overflow=hidden;fillColor=none;top=0;left=0;bottom=0;right=0;pointerEvents=1;fontSize=8;" vertex="1" parent="2wioDrltc-dDLqrhtzI2-2">
          <mxGeometry width="40" height="20" as="geometry">
            <mxRectangle width="40" height="20" as="alternateBounds" />
          </mxGeometry>
        </mxCell>
        <mxCell id="2wioDrltc-dDLqrhtzI2-4" value="Protocol" style="shape=partialRectangle;html=1;whiteSpace=wrap;connectable=0;strokeColor=inherit;overflow=hidden;fillColor=none;top=0;left=0;bottom=0;right=0;pointerEvents=1;fontSize=8;" vertex="1" parent="2wioDrltc-dDLqrhtzI2-2">
          <mxGeometry x="40" width="40" height="20" as="geometry">
            <mxRectangle width="40" height="20" as="alternateBounds" />
          </mxGeometry>
        </mxCell>
        <mxCell id="2wioDrltc-dDLqrhtzI2-5" value="Port" style="shape=partialRectangle;html=1;whiteSpace=wrap;connectable=0;strokeColor=inherit;overflow=hidden;fillColor=none;top=0;left=0;bottom=0;right=0;pointerEvents=1;fontSize=8;" vertex="1" parent="2wioDrltc-dDLqrhtzI2-2">
          <mxGeometry x="80" width="40" height="20" as="geometry">
            <mxRectangle width="40" height="20" as="alternateBounds" />
          </mxGeometry>
        </mxCell>
        <mxCell id="2wioDrltc-dDLqrhtzI2-6" value="" style="shape=tableRow;horizontal=0;startSize=0;swimlaneHead=0;swimlaneBody=0;strokeColor=inherit;top=0;left=0;bottom=0;right=0;collapsible=0;dropTarget=0;fillColor=none;points=[[0,0.5],[1,0.5]];portConstraint=eastwest;" vertex="1" parent="2wioDrltc-dDLqrhtzI2-1">
          <mxGeometry y="20" width="120" height="20" as="geometry" />
        </mxCell>
        <mxCell id="2wioDrltc-dDLqrhtzI2-7" value="0.0.0.0/0" style="shape=partialRectangle;html=1;whiteSpace=wrap;connectable=0;strokeColor=inherit;overflow=hidden;fillColor=none;top=0;left=0;bottom=0;right=0;pointerEvents=1;fontSize=8;" vertex="1" parent="2wioDrltc-dDLqrhtzI2-6">
          <mxGeometry width="40" height="20" as="geometry">
            <mxRectangle width="40" height="20" as="alternateBounds" />
          </mxGeometry>
        </mxCell>
        <mxCell id="2wioDrltc-dDLqrhtzI2-8" value="All" style="shape=partialRectangle;html=1;whiteSpace=wrap;connectable=0;strokeColor=inherit;overflow=hidden;fillColor=none;top=0;left=0;bottom=0;right=0;pointerEvents=1;fontSize=8;" vertex="1" parent="2wioDrltc-dDLqrhtzI2-6">
          <mxGeometry x="40" width="40" height="20" as="geometry">
            <mxRectangle width="40" height="20" as="alternateBounds" />
          </mxGeometry>
        </mxCell>
        <mxCell id="2wioDrltc-dDLqrhtzI2-9" value="All" style="shape=partialRectangle;html=1;whiteSpace=wrap;connectable=0;strokeColor=inherit;overflow=hidden;fillColor=none;top=0;left=0;bottom=0;right=0;pointerEvents=1;fontSize=8;" vertex="1" parent="2wioDrltc-dDLqrhtzI2-6">
          <mxGeometry x="80" width="40" height="20" as="geometry">
            <mxRectangle width="40" height="20" as="alternateBounds" />
          </mxGeometry>
        </mxCell>
        <mxCell id="2wioDrltc-dDLqrhtzI2-30" value="" style="shape=table;startSize=0;container=1;collapsible=0;childLayout=tableLayout;fontSize=10;" vertex="1" parent="Ltkkh5CByaUElA2lVHEI-21">
          <mxGeometry x="520" y="270" width="120" height="40" as="geometry" />
        </mxCell>
        <mxCell id="2wioDrltc-dDLqrhtzI2-31" value="" style="shape=tableRow;horizontal=0;startSize=0;swimlaneHead=0;swimlaneBody=0;strokeColor=inherit;top=0;left=0;bottom=0;right=0;collapsible=0;dropTarget=0;fillColor=none;points=[[0,0.5],[1,0.5]];portConstraint=eastwest;" vertex="1" parent="2wioDrltc-dDLqrhtzI2-30">
          <mxGeometry width="120" height="20" as="geometry" />
        </mxCell>
        <mxCell id="2wioDrltc-dDLqrhtzI2-32" value="Destination" style="shape=partialRectangle;html=1;whiteSpace=wrap;connectable=0;strokeColor=inherit;overflow=hidden;fillColor=none;top=0;left=0;bottom=0;right=0;pointerEvents=1;fontSize=8;" vertex="1" parent="2wioDrltc-dDLqrhtzI2-31">
          <mxGeometry width="40" height="20" as="geometry">
            <mxRectangle width="40" height="20" as="alternateBounds" />
          </mxGeometry>
        </mxCell>
        <mxCell id="2wioDrltc-dDLqrhtzI2-33" value="Protocol" style="shape=partialRectangle;html=1;whiteSpace=wrap;connectable=0;strokeColor=inherit;overflow=hidden;fillColor=none;top=0;left=0;bottom=0;right=0;pointerEvents=1;fontSize=8;" vertex="1" parent="2wioDrltc-dDLqrhtzI2-31">
          <mxGeometry x="40" width="40" height="20" as="geometry">
            <mxRectangle width="40" height="20" as="alternateBounds" />
          </mxGeometry>
        </mxCell>
        <mxCell id="2wioDrltc-dDLqrhtzI2-34" value="Port" style="shape=partialRectangle;html=1;whiteSpace=wrap;connectable=0;strokeColor=inherit;overflow=hidden;fillColor=none;top=0;left=0;bottom=0;right=0;pointerEvents=1;fontSize=8;" vertex="1" parent="2wioDrltc-dDLqrhtzI2-31">
          <mxGeometry x="80" width="40" height="20" as="geometry">
            <mxRectangle width="40" height="20" as="alternateBounds" />
          </mxGeometry>
        </mxCell>
        <mxCell id="2wioDrltc-dDLqrhtzI2-35" value="" style="shape=tableRow;horizontal=0;startSize=0;swimlaneHead=0;swimlaneBody=0;strokeColor=inherit;top=0;left=0;bottom=0;right=0;collapsible=0;dropTarget=0;fillColor=none;points=[[0,0.5],[1,0.5]];portConstraint=eastwest;" vertex="1" parent="2wioDrltc-dDLqrhtzI2-30">
          <mxGeometry y="20" width="120" height="20" as="geometry" />
        </mxCell>
        <mxCell id="2wioDrltc-dDLqrhtzI2-36" value="0.0.0.0/0" style="shape=partialRectangle;html=1;whiteSpace=wrap;connectable=0;strokeColor=inherit;overflow=hidden;fillColor=none;top=0;left=0;bottom=0;right=0;pointerEvents=1;fontSize=8;" vertex="1" parent="2wioDrltc-dDLqrhtzI2-35">
          <mxGeometry width="40" height="20" as="geometry">
            <mxRectangle width="40" height="20" as="alternateBounds" />
          </mxGeometry>
        </mxCell>
        <mxCell id="2wioDrltc-dDLqrhtzI2-37" value="All" style="shape=partialRectangle;html=1;whiteSpace=wrap;connectable=0;strokeColor=inherit;overflow=hidden;fillColor=none;top=0;left=0;bottom=0;right=0;pointerEvents=1;fontSize=8;" vertex="1" parent="2wioDrltc-dDLqrhtzI2-35">
          <mxGeometry x="40" width="40" height="20" as="geometry">
            <mxRectangle width="40" height="20" as="alternateBounds" />
          </mxGeometry>
        </mxCell>
        <mxCell id="2wioDrltc-dDLqrhtzI2-38" value="All" style="shape=partialRectangle;html=1;whiteSpace=wrap;connectable=0;strokeColor=inherit;overflow=hidden;fillColor=none;top=0;left=0;bottom=0;right=0;pointerEvents=1;fontSize=8;" vertex="1" parent="2wioDrltc-dDLqrhtzI2-35">
          <mxGeometry x="80" width="40" height="20" as="geometry">
            <mxRectangle width="40" height="20" as="alternateBounds" />
          </mxGeometry>
        </mxCell>
        <mxCell id="Ltkkh5CByaUElA2lVHEI-24" value="User&lt;div&gt;&lt;br&gt;&lt;/div&gt;" style="sketch=0;outlineConnect=0;fontColor=#232F3E;gradientColor=none;fillColor=#232F3D;strokeColor=none;dashed=0;verticalLabelPosition=bottom;verticalAlign=top;align=center;html=1;fontSize=12;fontStyle=0;aspect=fixed;pointerEvents=1;shape=mxgraph.aws4.user;" parent="1" vertex="1">
          <mxGeometry x="10" y="200" width="60" height="60" as="geometry" />
        </mxCell>
        <mxCell id="Ltkkh5CByaUElA2lVHEI-25" value="" style="endArrow=classic;html=1;rounded=0;" parent="1" source="Ltkkh5CByaUElA2lVHEI-24" target="Ltkkh5CByaUElA2lVHEI-23" edge="1">
          <mxGeometry width="50" height="50" relative="1" as="geometry">
            <mxPoint x="410" y="280" as="sourcePoint" />
            <mxPoint x="460" y="230" as="targetPoint" />
          </mxGeometry>
        </mxCell>
        <mxCell id="Ltkkh5CByaUElA2lVHEI-26" value="SSH with key pair" style="edgeLabel;html=1;align=center;verticalAlign=middle;resizable=0;points=[];" parent="Ltkkh5CByaUElA2lVHEI-25" vertex="1" connectable="0">
          <mxGeometry x="-0.3345" y="1" relative="1" as="geometry">
            <mxPoint as="offset" />
          </mxGeometry>
        </mxCell>
        <mxCell id="Ltkkh5CByaUElA2lVHEI-35" value="" style="endArrow=classic;html=1;rounded=0;entryX=0;entryY=0.5;entryDx=0;entryDy=0;entryPerimeter=0;" parent="1" source="Ltkkh5CByaUElA2lVHEI-23" target="Ltkkh5CByaUElA2lVHEI-12" edge="1">
          <mxGeometry width="50" height="50" relative="1" as="geometry">
            <mxPoint x="530" y="280" as="sourcePoint" />
            <mxPoint x="580" y="230" as="targetPoint" />
          </mxGeometry>
        </mxCell>
        <mxCell id="ASpqyk48jqxfm7gMIun3-17" value="" style="shape=table;startSize=0;container=1;collapsible=0;childLayout=tableLayout;fontSize=8;" parent="1" vertex="1">
          <mxGeometry x="470" y="180" width="170" height="100" as="geometry" />
        </mxCell>
        <mxCell id="ASpqyk48jqxfm7gMIun3-18" value="" style="shape=tableRow;horizontal=0;startSize=0;swimlaneHead=0;swimlaneBody=0;strokeColor=inherit;top=0;left=0;bottom=0;right=0;collapsible=0;dropTarget=0;fillColor=none;points=[[0,0.5],[1,0.5]];portConstraint=eastwest;fontSize=8;" parent="ASpqyk48jqxfm7gMIun3-17" vertex="1">
          <mxGeometry width="170" height="22" as="geometry" />
        </mxCell>
        <mxCell id="ASpqyk48jqxfm7gMIun3-19" value="&lt;font style=&quot;font-size: 8px;&quot;&gt;Source&lt;/font&gt;" style="shape=partialRectangle;html=1;whiteSpace=wrap;connectable=0;strokeColor=inherit;overflow=hidden;fillColor=none;top=0;left=0;bottom=0;right=0;pointerEvents=1;" parent="ASpqyk48jqxfm7gMIun3-18" vertex="1">
          <mxGeometry width="57" height="22" as="geometry">
            <mxRectangle width="57" height="22" as="alternateBounds" />
          </mxGeometry>
        </mxCell>
        <mxCell id="ASpqyk48jqxfm7gMIun3-20" value="Protocol" style="shape=partialRectangle;html=1;whiteSpace=wrap;connectable=0;strokeColor=inherit;overflow=hidden;fillColor=none;top=0;left=0;bottom=0;right=0;pointerEvents=1;fontSize=8;" parent="ASpqyk48jqxfm7gMIun3-18" vertex="1">
          <mxGeometry x="57" width="56" height="22" as="geometry">
            <mxRectangle width="56" height="22" as="alternateBounds" />
          </mxGeometry>
        </mxCell>
        <mxCell id="ASpqyk48jqxfm7gMIun3-21" value="Port" style="shape=partialRectangle;html=1;whiteSpace=wrap;connectable=0;strokeColor=inherit;overflow=hidden;fillColor=none;top=0;left=0;bottom=0;right=0;pointerEvents=1;fontSize=8;" parent="ASpqyk48jqxfm7gMIun3-18" vertex="1">
          <mxGeometry x="113" width="57" height="22" as="geometry">
            <mxRectangle width="57" height="22" as="alternateBounds" />
          </mxGeometry>
        </mxCell>
        <mxCell id="ASpqyk48jqxfm7gMIun3-22" value="" style="shape=tableRow;horizontal=0;startSize=0;swimlaneHead=0;swimlaneBody=0;strokeColor=inherit;top=0;left=0;bottom=0;right=0;collapsible=0;dropTarget=0;fillColor=none;points=[[0,0.5],[1,0.5]];portConstraint=eastwest;fontSize=8;" parent="ASpqyk48jqxfm7gMIun3-17" vertex="1">
          <mxGeometry y="22" width="170" height="22" as="geometry" />
        </mxCell>
        <mxCell id="ASpqyk48jqxfm7gMIun3-23" value="&lt;font style=&quot;font-size: 8px;&quot;&gt;User IP Adress&lt;/font&gt;" style="shape=partialRectangle;html=1;whiteSpace=wrap;connectable=0;strokeColor=inherit;overflow=hidden;fillColor=none;top=0;left=0;bottom=0;right=0;pointerEvents=1;" parent="ASpqyk48jqxfm7gMIun3-22" vertex="1">
          <mxGeometry width="57" height="22" as="geometry">
            <mxRectangle width="57" height="22" as="alternateBounds" />
          </mxGeometry>
        </mxCell>
        <mxCell id="ASpqyk48jqxfm7gMIun3-24" value="TCP" style="shape=partialRectangle;html=1;whiteSpace=wrap;connectable=0;strokeColor=inherit;overflow=hidden;fillColor=none;top=0;left=0;bottom=0;right=0;pointerEvents=1;fontSize=8;" parent="ASpqyk48jqxfm7gMIun3-22" vertex="1">
          <mxGeometry x="57" width="56" height="22" as="geometry">
            <mxRectangle width="56" height="22" as="alternateBounds" />
          </mxGeometry>
        </mxCell>
        <mxCell id="ASpqyk48jqxfm7gMIun3-25" value="22" style="shape=partialRectangle;html=1;whiteSpace=wrap;connectable=0;strokeColor=inherit;overflow=hidden;fillColor=none;top=0;left=0;bottom=0;right=0;pointerEvents=1;fontSize=8;" parent="ASpqyk48jqxfm7gMIun3-22" vertex="1">
          <mxGeometry x="113" width="57" height="22" as="geometry">
            <mxRectangle width="57" height="22" as="alternateBounds" />
          </mxGeometry>
        </mxCell>
        <mxCell id="ASpqyk48jqxfm7gMIun3-26" value="" style="shape=tableRow;horizontal=0;startSize=0;swimlaneHead=0;swimlaneBody=0;strokeColor=inherit;top=0;left=0;bottom=0;right=0;collapsible=0;dropTarget=0;fillColor=none;points=[[0,0.5],[1,0.5]];portConstraint=eastwest;fontSize=8;" parent="ASpqyk48jqxfm7gMIun3-17" vertex="1">
          <mxGeometry y="44" width="170" height="34" as="geometry" />
        </mxCell>
        <mxCell id="ASpqyk48jqxfm7gMIun3-27" value="Public subnet CIDR" style="shape=partialRectangle;html=1;whiteSpace=wrap;connectable=0;strokeColor=inherit;overflow=hidden;fillColor=none;top=0;left=0;bottom=0;right=0;pointerEvents=1;fontSize=8;" parent="ASpqyk48jqxfm7gMIun3-26" vertex="1">
          <mxGeometry width="57" height="34" as="geometry">
            <mxRectangle width="57" height="34" as="alternateBounds" />
          </mxGeometry>
        </mxCell>
        <mxCell id="ASpqyk48jqxfm7gMIun3-28" value="ICMP" style="shape=partialRectangle;html=1;whiteSpace=wrap;connectable=0;strokeColor=inherit;overflow=hidden;fillColor=none;top=0;left=0;bottom=0;right=0;pointerEvents=1;fontSize=8;" parent="ASpqyk48jqxfm7gMIun3-26" vertex="1">
          <mxGeometry x="57" width="56" height="34" as="geometry">
            <mxRectangle width="56" height="34" as="alternateBounds" />
          </mxGeometry>
        </mxCell>
        <mxCell id="ASpqyk48jqxfm7gMIun3-29" value="All" style="shape=partialRectangle;html=1;whiteSpace=wrap;connectable=0;strokeColor=inherit;overflow=hidden;fillColor=none;top=0;left=0;bottom=0;right=0;pointerEvents=1;fontSize=8;" parent="ASpqyk48jqxfm7gMIun3-26" vertex="1">
          <mxGeometry x="113" width="57" height="34" as="geometry">
            <mxRectangle width="57" height="34" as="alternateBounds" />
          </mxGeometry>
        </mxCell>
        <mxCell id="ASpqyk48jqxfm7gMIun3-30" style="shape=tableRow;horizontal=0;startSize=0;swimlaneHead=0;swimlaneBody=0;strokeColor=inherit;top=0;left=0;bottom=0;right=0;collapsible=0;dropTarget=0;fillColor=none;points=[[0,0.5],[1,0.5]];portConstraint=eastwest;fontSize=8;" parent="ASpqyk48jqxfm7gMIun3-17" vertex="1">
          <mxGeometry y="78" width="170" height="22" as="geometry" />
        </mxCell>
        <mxCell id="ASpqyk48jqxfm7gMIun3-31" value="Private subnet CIDR" style="shape=partialRectangle;html=1;whiteSpace=wrap;connectable=0;strokeColor=inherit;overflow=hidden;fillColor=none;top=0;left=0;bottom=0;right=0;pointerEvents=1;fontSize=8;" parent="ASpqyk48jqxfm7gMIun3-30" vertex="1">
          <mxGeometry width="57" height="22" as="geometry">
            <mxRectangle width="57" height="22" as="alternateBounds" />
          </mxGeometry>
        </mxCell>
        <mxCell id="ASpqyk48jqxfm7gMIun3-32" value="ICMP" style="shape=partialRectangle;html=1;whiteSpace=wrap;connectable=0;strokeColor=inherit;overflow=hidden;fillColor=none;top=0;left=0;bottom=0;right=0;pointerEvents=1;fontSize=8;" parent="ASpqyk48jqxfm7gMIun3-30" vertex="1">
          <mxGeometry x="57" width="56" height="22" as="geometry">
            <mxRectangle width="56" height="22" as="alternateBounds" />
          </mxGeometry>
        </mxCell>
        <mxCell id="ASpqyk48jqxfm7gMIun3-33" value="All" style="shape=partialRectangle;html=1;whiteSpace=wrap;connectable=0;strokeColor=inherit;overflow=hidden;fillColor=none;top=0;left=0;bottom=0;right=0;pointerEvents=1;fontSize=8;" parent="ASpqyk48jqxfm7gMIun3-30" vertex="1">
          <mxGeometry x="113" width="57" height="22" as="geometry">
            <mxRectangle width="57" height="22" as="alternateBounds" />
          </mxGeometry>
        </mxCell>
        <mxCell id="2wioDrltc-dDLqrhtzI2-13" value="" style="shape=table;startSize=0;container=1;collapsible=0;childLayout=tableLayout;fontSize=8;" vertex="1" parent="1">
          <mxGeometry x="470" y="340" width="170" height="100" as="geometry" />
        </mxCell>
        <mxCell id="2wioDrltc-dDLqrhtzI2-14" value="" style="shape=tableRow;horizontal=0;startSize=0;swimlaneHead=0;swimlaneBody=0;strokeColor=inherit;top=0;left=0;bottom=0;right=0;collapsible=0;dropTarget=0;fillColor=none;points=[[0,0.5],[1,0.5]];portConstraint=eastwest;fontSize=8;" vertex="1" parent="2wioDrltc-dDLqrhtzI2-13">
          <mxGeometry width="170" height="22" as="geometry" />
        </mxCell>
        <mxCell id="2wioDrltc-dDLqrhtzI2-15" value="&lt;font style=&quot;font-size: 8px;&quot;&gt;Source&lt;/font&gt;" style="shape=partialRectangle;html=1;whiteSpace=wrap;connectable=0;strokeColor=inherit;overflow=hidden;fillColor=none;top=0;left=0;bottom=0;right=0;pointerEvents=1;" vertex="1" parent="2wioDrltc-dDLqrhtzI2-14">
          <mxGeometry width="57" height="22" as="geometry">
            <mxRectangle width="57" height="22" as="alternateBounds" />
          </mxGeometry>
        </mxCell>
        <mxCell id="2wioDrltc-dDLqrhtzI2-16" value="Protocol" style="shape=partialRectangle;html=1;whiteSpace=wrap;connectable=0;strokeColor=inherit;overflow=hidden;fillColor=none;top=0;left=0;bottom=0;right=0;pointerEvents=1;fontSize=8;" vertex="1" parent="2wioDrltc-dDLqrhtzI2-14">
          <mxGeometry x="57" width="56" height="22" as="geometry">
            <mxRectangle width="56" height="22" as="alternateBounds" />
          </mxGeometry>
        </mxCell>
        <mxCell id="2wioDrltc-dDLqrhtzI2-17" value="Port" style="shape=partialRectangle;html=1;whiteSpace=wrap;connectable=0;strokeColor=inherit;overflow=hidden;fillColor=none;top=0;left=0;bottom=0;right=0;pointerEvents=1;fontSize=8;" vertex="1" parent="2wioDrltc-dDLqrhtzI2-14">
          <mxGeometry x="113" width="57" height="22" as="geometry">
            <mxRectangle width="57" height="22" as="alternateBounds" />
          </mxGeometry>
        </mxCell>
        <mxCell id="2wioDrltc-dDLqrhtzI2-18" value="" style="shape=tableRow;horizontal=0;startSize=0;swimlaneHead=0;swimlaneBody=0;strokeColor=inherit;top=0;left=0;bottom=0;right=0;collapsible=0;dropTarget=0;fillColor=none;points=[[0,0.5],[1,0.5]];portConstraint=eastwest;fontSize=8;" vertex="1" parent="2wioDrltc-dDLqrhtzI2-13">
          <mxGeometry y="22" width="170" height="22" as="geometry" />
        </mxCell>
        <mxCell id="2wioDrltc-dDLqrhtzI2-19" value="&lt;font style=&quot;font-size: 8px;&quot;&gt;Public subnet CIDR&lt;/font&gt;" style="shape=partialRectangle;html=1;whiteSpace=wrap;connectable=0;strokeColor=inherit;overflow=hidden;fillColor=none;top=0;left=0;bottom=0;right=0;pointerEvents=1;" vertex="1" parent="2wioDrltc-dDLqrhtzI2-18">
          <mxGeometry width="57" height="22" as="geometry">
            <mxRectangle width="57" height="22" as="alternateBounds" />
          </mxGeometry>
        </mxCell>
        <mxCell id="2wioDrltc-dDLqrhtzI2-20" value="TCP" style="shape=partialRectangle;html=1;whiteSpace=wrap;connectable=0;strokeColor=inherit;overflow=hidden;fillColor=none;top=0;left=0;bottom=0;right=0;pointerEvents=1;fontSize=8;" vertex="1" parent="2wioDrltc-dDLqrhtzI2-18">
          <mxGeometry x="57" width="56" height="22" as="geometry">
            <mxRectangle width="56" height="22" as="alternateBounds" />
          </mxGeometry>
        </mxCell>
        <mxCell id="2wioDrltc-dDLqrhtzI2-21" value="22" style="shape=partialRectangle;html=1;whiteSpace=wrap;connectable=0;strokeColor=inherit;overflow=hidden;fillColor=none;top=0;left=0;bottom=0;right=0;pointerEvents=1;fontSize=8;" vertex="1" parent="2wioDrltc-dDLqrhtzI2-18">
          <mxGeometry x="113" width="57" height="22" as="geometry">
            <mxRectangle width="57" height="22" as="alternateBounds" />
          </mxGeometry>
        </mxCell>
        <mxCell id="2wioDrltc-dDLqrhtzI2-22" value="" style="shape=tableRow;horizontal=0;startSize=0;swimlaneHead=0;swimlaneBody=0;strokeColor=inherit;top=0;left=0;bottom=0;right=0;collapsible=0;dropTarget=0;fillColor=none;points=[[0,0.5],[1,0.5]];portConstraint=eastwest;fontSize=8;" vertex="1" parent="2wioDrltc-dDLqrhtzI2-13">
          <mxGeometry y="44" width="170" height="34" as="geometry" />
        </mxCell>
        <mxCell id="2wioDrltc-dDLqrhtzI2-23" value="Public subnet CIDR" style="shape=partialRectangle;html=1;whiteSpace=wrap;connectable=0;strokeColor=inherit;overflow=hidden;fillColor=none;top=0;left=0;bottom=0;right=0;pointerEvents=1;fontSize=8;" vertex="1" parent="2wioDrltc-dDLqrhtzI2-22">
          <mxGeometry width="57" height="34" as="geometry">
            <mxRectangle width="57" height="34" as="alternateBounds" />
          </mxGeometry>
        </mxCell>
        <mxCell id="2wioDrltc-dDLqrhtzI2-24" value="ICMP" style="shape=partialRectangle;html=1;whiteSpace=wrap;connectable=0;strokeColor=inherit;overflow=hidden;fillColor=none;top=0;left=0;bottom=0;right=0;pointerEvents=1;fontSize=8;" vertex="1" parent="2wioDrltc-dDLqrhtzI2-22">
          <mxGeometry x="57" width="56" height="34" as="geometry">
            <mxRectangle width="56" height="34" as="alternateBounds" />
          </mxGeometry>
        </mxCell>
        <mxCell id="2wioDrltc-dDLqrhtzI2-25" value="All" style="shape=partialRectangle;html=1;whiteSpace=wrap;connectable=0;strokeColor=inherit;overflow=hidden;fillColor=none;top=0;left=0;bottom=0;right=0;pointerEvents=1;fontSize=8;" vertex="1" parent="2wioDrltc-dDLqrhtzI2-22">
          <mxGeometry x="113" width="57" height="34" as="geometry">
            <mxRectangle width="57" height="34" as="alternateBounds" />
          </mxGeometry>
        </mxCell>
        <mxCell id="2wioDrltc-dDLqrhtzI2-26" style="shape=tableRow;horizontal=0;startSize=0;swimlaneHead=0;swimlaneBody=0;strokeColor=inherit;top=0;left=0;bottom=0;right=0;collapsible=0;dropTarget=0;fillColor=none;points=[[0,0.5],[1,0.5]];portConstraint=eastwest;fontSize=8;" vertex="1" parent="2wioDrltc-dDLqrhtzI2-13">
          <mxGeometry y="78" width="170" height="22" as="geometry" />
        </mxCell>
        <mxCell id="2wioDrltc-dDLqrhtzI2-27" value="Private subnet CIDR" style="shape=partialRectangle;html=1;whiteSpace=wrap;connectable=0;strokeColor=inherit;overflow=hidden;fillColor=none;top=0;left=0;bottom=0;right=0;pointerEvents=1;fontSize=8;" vertex="1" parent="2wioDrltc-dDLqrhtzI2-26">
          <mxGeometry width="57" height="22" as="geometry">
            <mxRectangle width="57" height="22" as="alternateBounds" />
          </mxGeometry>
        </mxCell>
        <mxCell id="2wioDrltc-dDLqrhtzI2-28" value="ICMP" style="shape=partialRectangle;html=1;whiteSpace=wrap;connectable=0;strokeColor=inherit;overflow=hidden;fillColor=none;top=0;left=0;bottom=0;right=0;pointerEvents=1;fontSize=8;" vertex="1" parent="2wioDrltc-dDLqrhtzI2-26">
          <mxGeometry x="57" width="56" height="22" as="geometry">
            <mxRectangle width="56" height="22" as="alternateBounds" />
          </mxGeometry>
        </mxCell>
        <mxCell id="2wioDrltc-dDLqrhtzI2-29" value="All" style="shape=partialRectangle;html=1;whiteSpace=wrap;connectable=0;strokeColor=inherit;overflow=hidden;fillColor=none;top=0;left=0;bottom=0;right=0;pointerEvents=1;fontSize=8;" vertex="1" parent="2wioDrltc-dDLqrhtzI2-26">
          <mxGeometry x="113" width="57" height="22" as="geometry">
            <mxRectangle width="57" height="22" as="alternateBounds" />
          </mxGeometry>
        </mxCell>
      </root>
    </mxGraphModel>
  </diagram>
</mxfile>
